<?xml version="1.0" standalone="no"?>
<!DOCTYPE svg PUBLIC "-//W3C//DTD SVG 20010904//EN"
 "http://www.w3.org/TR/2001/REC-SVG-20010904/DTD/svg10.dtd">
<svg version="1.0" xmlns="http://www.w3.org/2000/svg"
 width="225.000000pt" height="225.000000pt" viewBox="0 0 225.000000 225.000000"
 preserveAspectRatio="xMidYMid meet">
<metadata>
Created by potrace 1.16, written by Peter Selinger 2001-2019
</metadata>
<g transform="translate(0.000000,225.000000) scale(0.100000,-0.100000)"
fill="#000000" stroke="none">
<path d="M309 2166 c-63 -17 -143 -70 -179 -119 -63 -85 -61 -53 -58 -943 l3
-809 23 -43 c33 -61 95 -120 161 -151 l56 -26 810 0 810 0 57 27 c75 35 141
104 167 174 21 54 21 71 21 849 0 778 0 795 -21 849 -26 70 -87 134 -165 172
l-59 29 -790 2 c-609 1 -801 -1 -836 -11z m1039 -390 c123 -32 213 -97 248
-181 40 -95 34 -232 -12 -312 -24 -41 -99 -102 -126 -103 -7 -1 12 -14 43 -30
150 -77 215 -260 159 -442 -36 -117 -130 -195 -282 -235 -51 -13 -133 -17
-435 -20 l-373 -5 0 677 0 677 358 -5 c286 -3 369 -8 420 -21z"/>
<path d="M920 1420 l0 -140 120 0 c131 0 169 10 208 53 31 33 33 127 5 166
-37 49 -76 61 -210 61 l-123 0 0 -140z"/>
<path d="M920 865 l0 -177 148 3 c161 4 193 14 236 72 30 41 30 163 0 204 -40
55 -84 68 -241 71 l-143 4 0 -177z"/>
</g>
</svg>
