<?xml version="1.0" standalone="no"?>
<!DOCTYPE svg PUBLIC "-//W3C//DTD SVG 20010904//EN"
 "http://www.w3.org/TR/2001/REC-SVG-20010904/DTD/svg10.dtd">
<svg version="1.0" xmlns="http://www.w3.org/2000/svg"
 width="225.000000pt" height="225.000000pt" viewBox="0 0 225.000000 225.000000"
 preserveAspectRatio="xMidYMid meet">
<metadata>
Created by potrace 1.16, written by Peter Selinger 2001-2019
</metadata>
<g transform="translate(0.000000,225.000000) scale(0.100000,-0.100000)"
fill="#000000" stroke="none">
<path d="M172 2238 c-12 -6 -25 -23 -29 -37 -7 -30 152 -1867 167 -1922 18
-67 33 -73 396 -175 187 -52 366 -97 399 -100 54 -5 93 4 418 94 385 108 399
113 417 181 15 55 174 1892 167 1922 -4 14 -18 31 -32 37 -36 16 -1869 16
-1903 0z m1563 -435 c11 -10 15 -26 11 -43 -2 -15 -8 -61 -12 -103 -4 -42 -12
-81 -18 -85 -6 -5 -101 -45 -211 -90 -299 -121 -305 -124 -305 -138 0 -11 41
-14 220 -14 l221 0 24 -25 c14 -13 25 -32 25 -42 0 -25 -58 -571 -65 -611 -3
-18 -16 -38 -28 -46 -30 -20 -448 -166 -473 -166 -36 0 -458 151 -479 171 -16
15 -22 46 -35 167 -8 81 -14 155 -12 165 5 25 42 37 112 37 84 0 99 -15 111
-115 5 -44 11 -85 13 -90 2 -6 69 -33 148 -60 l144 -49 140 48 c76 27 142 52
146 55 7 6 38 266 38 316 l0 25 -430 0 -430 0 -10 23 c-19 43 -29 170 -15 192
8 14 107 60 289 134 152 63 276 118 276 122 0 5 -132 9 -294 9 -227 0 -296 3
-304 13 -6 7 -16 53 -22 102 -10 81 -10 91 6 102 14 10 145 13 610 13 539 0
594 -1 609 -17z"/>
</g>
</svg>
