<svg width="288" height="288" xmlns="http://www.w3.org/2000/svg">
 <!-- Created with Method Draw - http://github.com/duopixel/Method-Draw/ -->
 <metadata id="metadata21">image/svg+xml</metadata>

 <g id="g5">
  <title>background</title>
  <rect fill="#fff" id="canvas_background" height="290" width="290" y="-1" x="-1"/>
 </g>
 <g id="g13">
  <title>Layer 1</title>
  <g transform="matrix(0.7341114810017592,0,0,0.730542466455698,42.78661187125941,65.82189416655835) " id="SvgjsG1008">
   <svg y="0" x="0" id="svg_1" viewBox="0 0 225 225" height="288" width="288">
    <path id="svg_2" class="color000 svgShape" fill="#66ccff" d="m106.5,1.4c-1.6,0.8 -7.9,6.4 -14,12.5l-11,11.1l12.5,12.5l12.5,12.5l5.8,0c6.9,0 10.6,1.7 14.4,6.7c2.4,3.1 2.8,4.7 2.9,10.1l0.1,6.4l11.8,11.8l11.8,11.8l5.6,-0.1c8.2,0 12.8,2.8 16.5,10c6.9,13.7 -8.8,29.1 -22.8,22.3c-6.8,-3.2 -9.1,-7 -9.3,-15.4l-0.2,-6.9l-11,-11.1l-11.1,-11.1l0,30.3l0,30.3l3.1,2.7c10.5,8.7 6.4,25.3 -7.1,29.3c-10.2,3.1 -21,-5.8 -21,-17.1c0,-5.1 1.9,-8.8 6.4,-12.8l3.6,-3.1l0,-30.9l0,-30.8l-3,-1.7c-4.6,-2.8 -7.3,-8.9 -6.8,-15.5l0.5,-5.4l-12.5,-12.6l-12.4,-12.5l-34.9,34.9c-37.3,37.2 -37.9,38 -36.5,46.1c0.7,3.4 6.4,9.5 52.9,56c46.5,46.5 52.6,52.2 56,52.9c8.3,1.5 7.7,1.9 62.9,-53.3c45,-45.1 51.7,-52.3 52.3,-55.5c1.5,-8.3 2.7,-6.9 -51.8,-61.5c-28.1,-28.2 -52.6,-52 -54.3,-52.8c-3.9,-1.8 -7.9,-1.9 -11.9,-0.1z"/>
   </svg>
  </g>
  <text stroke="#4dbbf1" transform="matrix(1,0,0,0.8642662091639863,0,23.892843899872585) " xml:space="preserve" text-anchor="start" font-family="Helvetica, Arial, sans-serif" font-size="40" id="svg_6" y="31" x="80.5" stroke-width="5" fill="#4dbbf1"/>
  <text xml:space="preserve" text-anchor="start" font-family="Helvetica, Arial, sans-serif" font-size="40" id="svg_7" y="54" x="77.5" stroke-width="5" stroke="#4dbbf1" fill="#4dbbf1">GITHUB</text>
 </g>
</svg>