<svg id="SvgjsSvg1001" width="288" height="288" xmlns="http://www.w3.org/2000/svg" version="1.1" xmlns:xlink="http://www.w3.org/1999/xlink" xmlns:svgjs="http://svgjs.com/svgjs"><defs id="SvgjsDefs1002"></defs><g id="SvgjsG1008" transform="matrix(0.9167,0,0,0.9167,11.967834775543224,12.095540228796011)"><svg xmlns="http://www.w3.org/2000/svg" width="288" height="288" version="1.0" viewBox="0 0 191 263"><g transform="matrix(.1 0 0 -.1 0 263)" fill="#66ccff" class="color000 svgShape"><path d="M222 2413l3-178 27-9c18-6 36-5 57 4 28 11 31 17 31 55 0 45 10 55 55 55 30 0 43-17 47-65 2-33 8-41 30-49 18-6 36-5 57 4l31 12 0 174 0 174-60 0-60 0 0-55 0-55-50 0-50 0 0 55 0 55-60 0-60 0 2-177zM600 2532c0-63 12-77 70-84 25-3 25-5 28-104l3-102 30-13c21-8 39-9 57-3 26 9 27 12 30 94 3 117 7 130 38 130 52 0 64 15 64 80l0 60-160 0-160 0 0-58zM972 2413l3-178 27-9c18-6 36-5 57 4 29 12 31 16 31 66 0 30 4 54 8 54 5 0 21-14 36-31l28-31 32 31c18 17 35 31 39 31 4 0 7-23 7-51 0-38 5-55 18-65 21-16 56-18 83-4 18 10 19 23 19 185l0 175-63 0c-60 0-63-1-80-32-10-18-26-44-36-57l-18-24-34 57-34 56-63 0-62 0 2-177zM1410 2417l0-174 25-11c32-15 209-16 236-2 15 9 19 22 19 70l0 59-77 3-78 3-3 113-3 112-59 0-60 0 0-173zM50 2082c0-4 36-412 80-905 44-494 80-906 80-917 0-11 10-26 23-34 12-8 179-58 371-112l349-96 356 98c221 61 362 105 373 116 10 10 18 28 18 40 0 13 33 399 74 858 41 459 76 862 77 895l3 60-902 3c-496 1-902-1-902-6zm1464-449c-3-43-9-94-13-113l-7-35-428 3-428 2 7-107c4-60 9-111 12-115 2-5 189-8 415-8l410 0-6-52c-3-29-18-186-32-348-14-162-27-296-29-298-2-2-106-32-232-67l-229-64-227 63c-125 35-229 65-232 67-4 5-35 304-35 342 0 16 10 17 113 15l112-3 10-90 10-90 124-33 125-34 120 33c67 18 124 36 127 41 4 6 9 51 13 101 4 51 9 113 13 140l6 47-391 0-391 0-5 43c-7 48-56 596-56 621 0 15 48 16 565 16l566 0-7-77z" fill="#66ccff" class="color000 svgShape"></path></g></svg></g></svg>