<?xml version="1.0" standalone="no"?>
<!DOCTYPE svg PUBLIC "-//W3C//DTD SVG 20010904//EN"
 "http://www.w3.org/TR/2001/REC-SVG-20010904/DTD/svg10.dtd">
<svg version="1.0" xmlns="http://www.w3.org/2000/svg"
 width="452.000000pt" height="452.000000pt" viewBox="0 0 452.000000 452.000000"
 preserveAspectRatio="xMidYMid meet">

<g transform="translate(0.000000,452.000000) scale(0.100000,-0.100000)"
fill="#000000" stroke="none">
<path d="M1900 3845 c-354 -35 -823 -135 -904 -192 -59 -42 -103 -104 -115
-165 -30 -150 -42 -706 -20 -893 55 -475 231 -896 514 -1234 159 -190 407
-404 621 -534 104 -64 248 -137 267 -137 28 0 234 113 357 195 593 395 949
975 1036 1685 13 110 15 192 11 450 -8 420 -21 503 -92 588 -44 52 -101 78
-255 115 -254 62 -512 105 -750 127 -152 13 -514 11 -670 -5z m535 -455 c173
-211 301 -474 357 -733 18 -85 22 -133 22 -292 0 -175 -2 -198 -27 -290 -54
-201 -175 -403 -344 -575 l-83 -85 0 -142 0 -143 -100 0 -100 0 0 143 0 143
-76 74 c-291 288 -418 613 -384 989 33 368 201 727 480 1024 l73 78 64 -63
c35 -35 88 -92 118 -128z"/>
<path d="M3750 3825 c13 -14 26 -25 28 -25 3 0 -5 11 -18 25 -13 14 -26 25
-28 25 -3 0 5 -11 18 -25z"/>
<path d="M3790 3776 c0 -2 8 -10 18 -17 15 -13 16 -12 3 4 -13 16 -21 21 -21
13z"/>
<path d="M3857 3675 c9 -19 18 -33 21 -31 4 5 -26 66 -33 66 -3 0 3 -16 12
-35z"/>
<path d="M3886 3615 c14 -48 34 -153 35 -190 2 -32 3 -34 6 -12 6 37 -14 153
-33 192 -8 17 -12 21 -8 10z"/>
</g>
</svg>
