<?xml version="1.0" standalone="no"?>
<!DOCTYPE svg PUBLIC "-//W3C//DTD SVG 20010904//EN"
 "http://www.w3.org/TR/2001/REC-SVG-20010904/DTD/svg10.dtd">
<svg version="1.0" xmlns="http://www.w3.org/2000/svg"
 width="863.000000pt" height="1000.000000pt" viewBox="0 0 863.000000 1000.000000"
 preserveAspectRatio="xMidYMid meet">
<metadata>
Created by potrace 1.16, written by Peter Selinger 2001-2019
</metadata>
<g transform="translate(0.000000,1000.000000) scale(0.100000,-0.100000)"
fill="#000000" stroke="none">
<path d="M2256 8563 l-2056 -1187 0 -2376 0 -2375 2052 -1184 c1129 -651 2057
-1184 2063 -1184 6 0 934 533 2063 1184 l2052 1184 0 2375 0 2376 -2052 1184
c-1129 651 -2056 1185 -2059 1186 -3 2 -932 -531 -2063 -1183z m3730 -328
c133 -34 243 -107 331 -219 245 -314 304 -896 161 -1606 -17 -85 -31 -163 -32
-173 -1 -14 36 -30 189 -81 737 -247 1217 -610 1321 -997 21 -77 23 -214 5
-289 -7 -30 -35 -100 -61 -155 -170 -351 -648 -677 -1317 -897 l-125 -41 5
-31 c3 -17 15 -75 27 -129 158 -742 74 -1391 -218 -1686 -107 -108 -219 -162
-381 -181 -391 -48 -943 219 -1480 715 l-83 77 -52 -49 c-349 -337 -789 -606
-1151 -704 -141 -39 -347 -50 -463 -25 -262 55 -454 271 -537 606 -41 165 -50
253 -50 495 0 283 24 490 90 779 25 109 25 126 1 126 -7 0 -68 18 -137 41
-467 153 -860 377 -1100 626 -166 172 -243 313 -270 498 -35 234 99 499 364
722 246 206 645 407 1061 534 l108 33 -6 30 c-3 17 -19 96 -36 176 -57 273
-74 438 -73 710 0 207 3 263 21 363 75 408 251 648 532 724 104 28 306 24 440
-9 356 -89 723 -304 1128 -661 l123 -108 72 68 c368 348 787 607 1130 698 174
46 332 53 463 20z"/>
<path d="M5680 7935 c-293 -55 -730 -316 -1057 -629 l-84 -81 102 -115 c141
-160 302 -362 461 -581 l56 -76 108 -12 c207 -23 522 -71 694 -106 95 -20 174
-35 175 -33 15 15 67 290 91 483 19 156 22 473 5 595 -41 292 -149 497 -287
544 -69 23 -176 28 -264 11z"/>
<path d="M2701 7924 c-61 -16 -93 -37 -144 -93 -69 -77 -122 -207 -153 -377
-22 -122 -25 -466 -6 -624 24 -194 84 -505 100 -522 4 -3 45 2 92 13 145 32
487 87 680 109 102 11 190 23 196 25 6 2 58 66 114 142 139 186 230 299 387
479 l131 152 -46 44 c-479 455 -1052 733 -1351 652z"/>
<path d="M4188 6858 c-124 -144 -162 -189 -255 -308 l-51 -65 433 0 433 0 -21
29 c-82 116 -394 486 -408 486 -4 0 -63 -64 -131 -142z"/>
<path d="M3865 6170 c-66 -4 -142 -8 -168 -9 l-48 -1 -103 -157 c-178 -271
-346 -563 -491 -852 l-75 -151 75 -151 c137 -275 309 -573 491 -851 l102 -156
69 -8 c90 -11 1028 -11 1165 -1 l106 9 110 171 c179 281 355 590 505 885 l52
104 -80 156 c-141 275 -368 664 -537 917 l-53 80 -75 7 c-116 10 -910 17
-1045 8z m655 -546 c373 -124 555 -557 380 -903 -85 -169 -220 -282 -405 -341
-99 -31 -261 -31 -360 0 -184 58 -320 172 -403 336 -49 97 -66 175 -65 299 0
94 4 122 28 194 30 88 79 173 141 241 84 93 237 176 366 200 88 15 226 4 318
-26z"/>
<path d="M3040 6089 c-186 -30 -444 -81 -453 -89 -12 -11 197 -594 223 -623 4
-5 38 49 75 120 75 141 206 367 296 512 33 51 59 95 59 97 0 9 -90 1 -200 -17z"/>
<path d="M5393 6103 c2 -5 52 -87 110 -183 58 -96 153 -260 211 -364 l105
-189 22 49 c72 165 216 571 206 581 -11 10 -271 61 -481 93 -138 21 -180 24
-173 13z"/>
<path d="M2100 5871 c-296 -99 -533 -210 -730 -342 -195 -131 -308 -249 -373
-386 -26 -56 -31 -80 -31 -139 0 -64 4 -81 43 -160 38 -78 59 -104 160 -204
174 -173 385 -306 686 -433 128 -54 413 -153 418 -146 2 2 27 76 56 164 60
181 173 474 250 644 28 63 51 121 51 128 0 8 -30 82 -66 166 -89 204 -164 399
-230 592 -40 121 -58 161 -71 162 -10 2 -83 -19 -163 -46z"/>
<path d="M6316 5802 c-54 -165 -135 -375 -232 -602 l-84 -196 75 -168 c92
-206 190 -450 246 -616 23 -69 45 -129 49 -133 18 -21 359 106 585 217 353
175 576 358 673 555 32 64 36 83 36 146 0 64 -4 81 -38 151 -32 64 -59 98
-145 185 -208 207 -535 387 -956 526 -190 63 -165 71 -209 -65z"/>
<path d="M5798 4599 c-14 -24 -64 -116 -113 -204 -48 -88 -135 -237 -192 -332
-56 -95 -103 -175 -103 -178 0 -6 13 -4 185 21 128 18 474 82 486 90 14 8
-116 364 -224 613 l-14 34 -25 -44z"/>
<path d="M2750 4475 c-69 -175 -154 -413 -164 -461 l-7 -31 78 -16 c182 -39
593 -100 593 -89 0 2 -40 68 -88 146 -88 141 -242 408 -300 521 -17 33 -35 66
-40 74 -7 9 -28 -33 -72 -144z"/>
<path d="M6010 3668 c-240 -49 -569 -98 -766 -114 l-81 -7 -101 -141 c-117
-163 -331 -433 -439 -554 -41 -46 -73 -87 -71 -92 2 -4 41 -43 88 -85 377
-342 751 -559 1055 -611 161 -28 268 -3 356 85 88 88 147 228 185 436 22 124
25 476 6 635 -24 188 -76 458 -91 470 -3 3 -67 -7 -141 -22z"/>
<path d="M2487 3664 c-7 -24 -43 -191 -57 -264 -25 -133 -41 -288 -47 -460 -9
-294 21 -486 102 -656 54 -112 126 -185 207 -209 64 -19 211 -19 298 -1 298
63 692 295 1032 607 l88 80 -116 132 c-135 153 -303 362 -427 529 l-86 116
-53 6 c-351 38 -537 63 -743 102 -71 14 -144 27 -161 31 -26 4 -33 1 -37 -13z"/>
<path d="M3890 3511 c0 -13 273 -345 384 -466 49 -54 56 -58 68 -44 7 9 61 72
119 140 94 111 195 237 271 339 l27 35 -435 0 c-239 0 -434 -2 -434 -4z"/>
</g>
</svg>
