<?xml version="1.0" standalone="no"?>
<!DOCTYPE svg PUBLIC "-//W3C//DTD SVG 20010904//EN"
 "http://www.w3.org/TR/2001/REC-SVG-20010904/DTD/svg10.dtd">
<svg version="1.0" xmlns="http://www.w3.org/2000/svg"
 width="512.000000pt" height="512.000000pt" viewBox="0 0 512.000000 512.000000"
 preserveAspectRatio="xMidYMid meet">

<g transform="translate(0.000000,512.000000) scale(0.100000,-0.100000)"
fill="#000000" stroke="none">
<path d="M2415 4994 c-140 -19 -192 -30 -275 -56 -458 -145 -813 -519 -984
-1038 -89 -268 -126 -501 -126 -781 0 -212 11 -322 50 -519 51 -256 140 -504
276 -771 l74 -145 -21 -49 c-31 -70 -24 -208 15 -283 38 -74 86 -124 158 -163
60 -33 67 -34 168 -34 90 0 112 4 152 24 75 37 134 95 170 169 30 61 33 74 33
162 -1 115 -20 165 -95 244 -69 73 -150 109 -250 113 l-75 2 -44 78 c-208 370
-316 830 -297 1260 18 407 108 705 300 991 116 174 211 263 369 347 183 97
342 138 537 139 151 1 224 -15 350 -79 243 -122 451 -400 569 -762 39 -119 71
-259 71 -314 0 -16 6 -31 13 -33 6 -2 78 -24 160 -48 l147 -45 0 28 c0 15 -5
63 -10 106 -44 331 -148 623 -306 860 -204 307 -492 511 -817 577 -78 16 -257
28 -312 20z"/>
<path d="M2155 3499 c-112 -14 -215 -90 -267 -197 -30 -60 -33 -75 -33 -157 0
-82 3 -97 32 -156 39 -79 102 -140 181 -177 48 -22 71 -27 142 -27 71 0 94 5
142 27 68 32 142 98 170 151 l20 40 196 -6 c516 -14 982 -175 1412 -490 120
-88 316 -285 397 -400 119 -169 225 -407 257 -577 58 -305 -47 -612 -288 -836
-135 -127 -272 -197 -456 -234 -91 -19 -127 -21 -270 -17 -218 7 -299 24 -580
123 -9 3 -43 -19 -85 -54 -39 -32 -100 -81 -138 -110 -37 -28 -68 -55 -68 -58
-1 -11 170 -80 280 -114 345 -107 674 -115 986 -25 328 95 598 284 767 537
157 236 205 593 126 933 -94 406 -368 796 -778 1104 -454 342 -1040 530 -1651
531 l-115 0 -32 45 c-76 108 -206 162 -347 144z"/>
<path d="M645 2647 c-422 -351 -639 -773 -638 -1242 0 -235 49 -446 146 -628
198 -373 652 -606 1179 -607 151 0 236 10 423 51 509 112 907 316 1254 644
171 161 362 414 483 639 l53 99 57 17 c116 36 192 101 240 206 18 39 22 67 23
144 0 84 -3 101 -28 152 -36 73 -101 139 -175 175 -50 25 -68 28 -152 28 -82
0 -103 -4 -151 -26 -205 -96 -273 -350 -145 -536 l34 -50 -39 -73 c-100 -183
-273 -402 -432 -543 -283 -252 -679 -477 -987 -561 -283 -76 -628 -78 -865 -5
-211 65 -395 207 -500 387 -225 384 -187 789 111 1184 57 77 212 236 277 285
l27 21 -29 104 c-16 56 -34 129 -41 161 -6 31 -14 57 -18 57 -4 0 -52 -38
-107 -83z"/>
</g>
</svg>
